<mxfile host="65bd71144e">
    <diagram id="pXXN7SDjdBvf78eb6HD9" name="第 1 页">
        <mxGraphModel dx="1066" dy="616" grid="1" gridSize="10" guides="1" tooltips="1" connect="1" arrows="1" fold="1" page="1" pageScale="1" pageWidth="1169" pageHeight="1654" math="0" shadow="0">
            <root>
                <mxCell id="0"/>
                <mxCell id="1" parent="0"/>
                <mxCell id="2" value="" style="rounded=0;whiteSpace=wrap;html=1;" vertex="1" parent="1">
                    <mxGeometry x="530" y="70" width="460" height="440" as="geometry"/>
                </mxCell>
                <mxCell id="3" value="当函数参数有默认值时" style="text;html=1;strokeColor=none;fillColor=none;align=center;verticalAlign=middle;whiteSpace=wrap;rounded=0;" vertex="1" parent="1">
                    <mxGeometry x="690" y="30" width="150" height="30" as="geometry"/>
                </mxCell>
                <mxCell id="4" value="" style="shape=image;verticalLabelPosition=bottom;labelBackgroundColor=default;verticalAlign=top;aspect=fixed;imageAspect=0;image=data:image/png,iVBORw0KGgoAAAANSUhEUgAAAbUAAAHpCAYAAAAF5qJRAAAgAElEQVR4nOzde1yUdd74/5cwwHA+I8hJEQ8IQoahpqarllZm2WbeuuYmu181N6utXwe/rt3ceXfb4ZHV6rrqvdF22PqapZVsagfTDA8kGqigiHhAznI+DTDg7w8GGGBmmAEGcHw/H48eyVyf67rec7iu9/U5Xdegv37+yY3K3Rv5KAWIepS1851IjotnH3pEPcra+cNR6luuS34S67b+AEDkomdZ4JrS/HfHbdVcZOcbxUyJi6I1Jm2zY1k/abDO7UI4j70wj5EObYvzjm5gy37a9jvKzuC6Qdlfs4fZWuUKSOzwWXTcjvY+uqQcxUN/fJAo9a989M9vyVIZuR6w7alxRI9wI/lCGSv+eop5k/x4efFoAA6fKebP21KN35i22bGsn0Sn9zln5Rom0/IZzWSVvu/EoObP1TlF8xm1fN/5Say7FMz6qCp2pjixYNLg1u8jctGzLAi8xs43PqPtHc1k1cpg8B2MH22f+ZyVa5jsq/0daO+v8+/BaO1+G93Zd9vfIx3qyNi9kZQxWr97zecbXf41r356Vk8QM1kVF4OfKXHXXNT63Np/Zy3xtsg7uoGfPdrHpFvbsdESq65tGXMMKMPuY/lvI1An7yB+7xVM+PkLYTSF+/n9bGl3ohrM5Lg1TG5XrPnAbDuhdfy7Q7LS0nxyNESTOGbHsj6q4zKtAyotnLWT3MjYvUGz35msWtlSTnMCyE9i3Rua/c+OZZV2DL7aCap5u+tf8Gx38lSOmscD579mXZzWwRsXC5r1Wk+4cZp1oh5l7fw1rMLIxKY6z5f/2IH68YU89jgmJzZtZy5XkJVXTYifI1MjPPnohfHsTsxlV2KuSduJ9HCDmmt0XCu3vA4CPYkEUqM8cccOv/lrWD+/eblJybxFyme82vKbmR3b/P/98awzsJ227+4KIXFuZOxOwXn+GlaRBL51qGrscPcIB84Cvjg71FGZD3CWj97QShizY1k/ya3T79ZQcun+voHZExhJnebEHU5UYBmJb7Q/NpSj5rE+bl77nbZLqDo+59mxzRcD7ZJ+y29T/+cIoDr/Na9+SnPy7bhQz8VNR5GLnmWyy8W2Y0DrOOuKKv0btv9LTezvFhKLJDZhHorOB3Pn2knfs8PZF/CdwEiHAhI/PQuzJ6CkjKLWE9IPbNna/K/IRVH41Vxkp3ZC3R/PFoCoR4n2rSNjt/Z7OstH+8NZOz+AqChIbdlmflK7k9u+rUmExMUQMhvYP5MpoyBjt9bJJOUzkietYfKwmYChq10tqiskfLIf9+X3MWfat6YnBo2svGqe2ZrK/7lvGA9M8CUs0Jmw/xjF/MlD+NvXWRw7V9K9DeuinYxAcwI0IZlri3qUtfMDuHq+rPnPlWtY4HKx00lau+azbivATM3J8we27PZk7WxP9sRthEXPsiAwnEjOkjo7GD/KyOpQm2yuXdMuobXVRDfAyjWsX+nbqebe/X3PZNWkliQYRacEq9GcZPTV1PqIiyeRhBMVNRjV+a+7PO6HuNpBRXHbd9VynBlJdelbPtzrxp8emMn0vf19nhGWSNG91bSTS09p1QxrqoB8KmvAmXAe0z7Q9h8nI2oek+PWEN3hZDDE1Q5V9ll0NsD5OqGsuUZKx3hTznJ19vDm5KlZpirP71CoOZYgj3DQUVvRKmY8ZTBzF88mRJ1GwiET1tMht0TFf32cTvKFUpbODCLEz5GwQGeWzgrq3aTW0f54dno8y4KoR4nc3zEZ6dHadKyp5fvGsj4QUrZuoGjlGhbEreGB81+zp3UFrUTQqZallWTTrvHAqOaLEzzcID9F60SpqcHXtK9ZrG9p7jyaTySwb+sGchc9y/q4GE3NqIf7jvLEPT+FLSmwquNvxSRaNb9e0FwzbP53HpBaUtZcu5utdfHYhX1HLxI9P4b1cVGdar1GxTDsHpbeO5SG0/s5aPI7EKJrpic1XyeUOpsoAWJYHxfTeR2DB2bH5sezFFXMIyhqNn7tDrSWE81MVsU1N9v0/ZVuD2uxymDmPr6QaOV5ErZ+RbIJbS8B3vYA1NQ1dlqWcDyfhOP5vBYbzqxxPsSMcsfL1Y7r5XVdbje1pIwFo5wYAu2SU6cr8p4YFst6X+2mY0CrT2bf1g3si3qUtfPnsQCgBnT1kY7UvqBoaabTXJwEjXkU51F25B3V1LY0/XelRzewbn84j72whgUOmvXi4jUbCSfqhTU8kP01r366kVSay62PKqMENzy6u+/Wmu3M7n9mhi6iGMyCuDXNn5W2GsOb7NT8mF+FalIAD0TZGVVLA9re2+xY1s9fw/r5nbsi9FEOu4fY392GMn0/W75IkaZHYRY6kpruhNXStt/cB9O5uci0PjVPHnthDc4pG3hVc+XYrm+lvI7Jvnaozh/XcaD9wJa4lgEFzU0/ueV1TG5pBupYXHPgtmtmBIgKJ8ihjquGEm5LmbSzkOJL6fzhmqZIA+voo0loExwy+XKLaQlt7DAXBrs1D04pKG1bMcjHgauFbWcydyfb1n+7OCiMSmrkV6EiAO8oWmusEI63C+Sl6G9SNSnpXYrXNOMZoDlZtvUNNV/EzFm5prkPp/X3pmkavNQS21k+SpnA+knDm2tk+9tvD4DZ4bB/A+ta35/WIIyaiySm0bYtrWbCbu/bSDr71FqOLV8nlLouokztUxsTy/rZVex8Y0PrdtreYzGl84d3uHg00v54zcXCPILGhEOK4fWbE1o0zhe+4V1JaMKMdCQ1Q7WRcKICe3AFH/UoD4yyAwJg94a2ASpaoxrzjm4gy9UOai6y59OWmlkUlVfKcM6N19mHk/ppClPiYliwciapW7UHisSzZb+m32t+LHNStAaKzG4ehad9hakcNY9Vs8+2jV6bPRxlzUVN0+UPZOXHMHlSLHP2t30+kYtiiUqLN3yl2i6h7TIqoTkpFby1fCwA0SPcWl8/c6UCgEBvez74/6L59WI5VwprCAt0bi3389lisvKqu94JtPULzn6UyJTmE2XkotmMROsk3fpZtv3dPPLPyH7EVu1H9KnOH+/idzSTEF+A4UyZDan7Yc7KeYysSDI4uKST/Z/xUad9f8261hN5eOtFVtvvq5f2bYChloY5wwZDzcVOA3iMNWdl83v1c73SNnhKu/arScLuQN5RrYFQrikkEtMhmWtvNxa2mtZa0S6h7TAuoTX3g5a1nos6/t35gkOIZqY1P86e0DxEeb9pJzNVeb7W6CrNFePsWNbP1wzP12oSahsurKld4Yk7ZWTlwshJa1g/SbPRdrXFH9gSB6vitJs/C0jU1AL3aQYDaNdA25/UWl5LojJK3z50b4f8JK0agC5uzFpqWkIDcHWyaZfMAHYl5pJwvLlqeecYT5ztFUyN8GQqnq1ljp8r5bUdGcbtRKPlfbU2aemoiftpf/bUtW9KNFpzLbs75eesXNPcH1RzkZ3aowg1F0R5R7+mMmpe+wsbQDuRdvrOtaaU5B3dwM/5LSMZe2vf3RT1KNG+kHfUxBN2RbGmCbV5xPC6rWdpSdjNzbjN39u61uk7ze/dTzPQaYirXfOx6mpoJ4M7HUcGuwA8ppmc0IToiUGjI8bfaP2ri3lqhoY/azc/tp/HYnybe/N6WvN6Aq81z2PS0dzSuzrPxelNyrBwQi6dJc2EIzp6hBt+Hkq8Xe0oLKsjK6+a9OzKdmXCAp0ZPsSRIR725JequF5Rz5G04l6Ovie6OVdMO6l2qMVvyW/rK/vZo3nOYNuwd62BIXp+L+3mGRooR6/sW//8PmOPJZ0xaY4HujtnUnu+4Nbmi0E0ibl9bRU6z78zlZIxY4PJOn1eEproEybV1PZt3aC32SH1043tajSmDqboNP8lZSNDVq5hwSRjmqkGNlX6WdK6LtZO8oWyLsukZ1d2SnR9rdOk9laaixkdQ9m73F4gtJ+8rF0rbO4rm7NyDQt8OzaV/8CWuHwee0Gr1tRhwr5Kax6ifr20727SPpY60e57NlROr5ms0iTmliS1Zbcna+fPw48CEjslLl+cuzOBvZWKtNPne7IBIUzSvqZ2yzJvTU2Im5XuO7wIMXB1c56aEMKStXUhFJAYJwlN3DykpiaEEMJiWPV3AEIIIURvkaQmhBDCYkhSE0IIYTEkqQkhhLAYktSEEEJYDElqQgghLIYkNSGEEBZDkpoQQgiLYdQdRayUg/EOCiPIz4a8X77jWhcPIxQCG2tmjPBm7nhf/Csus/DLru9lKYQQPWW4pmYfxphJMxjp60DN1TMUym22hREWzolg22+HEN5QwV9TKvo7HCHELcRwTa02nbSj6Zo/XA0/ZkkIjR37zrCj5Y+I/oxECHGrkT41IYQQFsMy7tLv8zrxMUO1Xigj+cAK/lbjw8LoTcz201qUvYvYFE09QvEwf7rtN4S5ueOgtAGgoTyH1LR43i8+Q6euQ+395CUQm7yLaP+XWBg2Ei8l1OQd4P2T20juwS2inSYsYOmdYbi7OqO0BZrUlOac5NCu3SQXqLu/YSGEuAWYcJd+VwImxMDpgTpQxJGHo7YxtfIt/px1qv0iRSyv3hNB+rfP8nG7vODPVGcfDleeat2Gn/MSnpw0A9LWsfZahu5d+b5OfMA1EuojmDroOLvSdnG4oYG5kdu4q/wVXriiZz0AhSNubvZYN9ZSXlpNpzTlOpqRTufIyGkp78zI2X9g0SRIfPsdvjfiwdZ2Lp442UJDVQkVqravV/Hb/2LMBOcu179x8XtOb/um++9BW0QIO0JLZKCIEKJPWEZNDYBqdl06z4zxc5mRdYoDWksigybglXOAXZ3Ovjkcrsxpt428ym28enYUm30ngL6kBjB4HGEnNrK2oK1Gl5C6hISevo3yc2SUa/2triTj35s5OHQDo8YCB7u/afUX/0nqFz0NUAghBi4LSmpARQLpDc8xyceRA4XVmhdnM3uoDZkndnRuTtSjprGh60L5P/JqwRnTY1RXU3a9uuty7VeCJuNL11UUU2fiHkzSrfcghBDmZ1lJjVPsulTIq8EL8SuMJw9w8JlCaMNZ/qZrZLnVFJaEL2Sinw8OtprX1A3UqIHSbiSsXqAMmcOCB2MI8XRGoRnGo66vRA0UpRtctUu91vwohBADlIUlNcjLOc7F8Bk8rIznbyp/Hg4eyfVLz+p4HP0U/jRlNWEVB9iTuJ9j1ZcpBxjkz/DA51jr3eehQ+gCnn58LKVHd/PRkXNkldYCoHD2YdbS5wnq4eal+VEIYeksLqlxI4H0/AeYMWw2XIog2iODwydyOpdzmkKY9Sl2/LqNw+3Wz+G6CU19vSlkXBic/oTt/z7X7nV1ZaXhwRhCCCEAi5yn1jxghKApPBMSjkP2cXbpGt+pKqTcfhgTvcdpJpW7EeTyMMuj4nkj0r9vQ9YoLK/AaWgME/ztm19QejBmwnyWrXmZaX6G1xVCCNHVkH5lGLdNGomjnsXVFw/w69VK80TWI+P409SXiHatJv2nWN7Uc6em4R4vEXvbOPwcNC/UFHIxYweb1Q/w9vihtM13096mnl2WJ/HO4bd0NHOawoPoBUuZM9YfpQJAjaook+NffULD7FeYFQiUJrH9zZ1k92g/5rXwgdt4eJie66WmYnZtvtJ2xxEhhOhFJsxTE0IIIQY2C2x+FEIIcauSpCaEEMJiSFITQghhMSSpCSGEsBiS1IQQQlgMSWpCCCEshiQ1IYQQFkOSmhBCCIshSU0IIYTFkKQmhBDCYkhSE0IIYTEkqQkhhLAYktSEEEJYDElqQgghLEbXT762csU7dBxBvq4oraGpoZKizGSy8svppwdEG6XTs9LUDTSozrPn4HoS+jUy85k4Ip7lo4rYn/Dizfu8Mo8V+P/HHAL8nFqvuBpUVRTtnc+Vk/0aGdDA+/97Hu8fI5j7SX/HIoTQxXBSG+RBQPRkfCrPcO7IFarVTVg5DiN07HQilYf59XJJH4VpIpsVrJg4jKJfXuONolOU93c8JooO3cYS3uPPmUn9HUofi8Fn8SN4Fn/NyfhNNKj6O572Jv6fQiba+PKuJDQhBiyDSc1qcDj+lac4fu5a62tN1ZfIOGHNmMnheGcfpqjR7DGazjMEr8LjxBWdoqa/Y+kGm0E22GBr8nrHLsRy7IIZAuozU3AfnE/u1k00qPs7lo7qeHpyHtdTx7G1v0MRQuhlsE+tKf9wu4TWSp1Ncbkzzk7mCqsX3Gi4KROaqKdpwCU0CFhYxm2Ofhz73Lq/QxFCGDBodMT4G6avFUDolJFUHz9AXr0Zouqmh6N2MDdQz8KmyyR88yK7ABjHn6a+RLQrkJdAbPJHmkILibvvYYKsAC6365vyCtjIG7f5N7/+7y+wifwDMwLcYBA0lGewP+k1dtVV69y1q2Msf759BkEuNjAIqK8m71IC6Q4PE5q/hLgCI+IHytNf488XT3V4VTvmznHrZDWFJeELmejvg4MCaGqgvOAU+1LfYn+DVjlFLK/OmY0fcPVELHusX2bJ2KG4KoD6Mi6mbOLtgjM9v3iY+B4T7g/Se4VV+O+7uXisw4vKeXgt+B1BIR7YKYCmeqpzfuXS52up1NkqHordzOcYEROKs6afVV12lZwft5F7sutm3nWvprHYJZBlq53pGIoQYuDoVlKzH3Y3kbZnOH4+zxwx9Zzv68T7n9FKVqaWe4y4uRGkd0oOjxE3NwbyHHGoSODji7tIZRxzR6/kYZ9LbD/4WqcT3nDf13khDI79+gX7ypLIuwGuNjOYM2ohs4e6cfXEQuLy268zcUQ8S4jnyQs/m/jG9cWtxeYx4u6MoezMNrYXtyUkV8cVvDA+hNQjL7Kjof0qC6N3EM1lHGxL2XdqKwkqiPRezbKYYVw5FMs7VV3FpcTF0wkb6qkuqUCl9xf3LKPWh1O07g8Y7K31eJYRfxhHzY/vk3PiQOvLVsP+kxGPBFH03h8oabeBGDz+uAbf0n1c+GpbW9Omch4+jy/DNW0DF34ylNjq+PSj0wxPjSLmTZuu3qwQoh+ZPKTffujd3OZVQGrGAE1oZueDa8XHxF3YRWoT0HSKhLQdpA4aycSOzbGKWGIjbTj884u8X9qc0ADKGw6w48yz7M8DTK8n94A/CyN/Q0P6S7xT3L6GVV69jbXJpUy8YzWROtb0cixlx7HXSFCVAWWkFq1nVyaE+k3po9hb3IbHIzNpOvx8u4QG0HTpvzi/q4SA37+KduqxumsFQ5sOkPbFtvZ9daqvKdz6L2omPIevv4FdBtXjpYTCQkloQgx0JiU1++AZ3OZdwK8nUqnt05PxQHKZYxcOdGhyq9eZnBwGR+CV/zMfN3ReBtXsSF7Y2vTYJwbNIMwzh5RC3c2kVCVxxW4kE+06L7qa8RqHO7zHBqPndKioKL5OcbGhWpqRFDPwHnyV68fydS+/eJwy21A8/Vpe8MVttC/lZzbp2eDnlFy2xeu2Gfr3ObQBV9wputqDuIUQfcLopGYfPIPIWz6hmSbSwY2G2sL+DqONoz9e9dVc11ugHm444jCQKyTBftjXV2GoK7cRW6xb5icyBXv3elTFBlZoAoXSo/diFEL0GyOSmhWOw+4mwj2P1OSzktBMcEVVjY29T3+H0aY6h+u2jnjpLWALg6qp0VmzHCCu5FFr62RwwoM19TS2VqV/prbUFqWngRWsQK0y0ItXZk0dpXgHmR6uEKJvdZHU7HAfdQ9jnC5xOiXd8hKavvczyIbeqKzk5Z3iesBvWKZnY8N9X2fb1Od09mHpjssfv57c2OzGAdKL/YnycdS52MF9MqF1GRyr68E+zE19gKKCILwm+upeHjkVr/pMilu7fPMpO5ePa8Rq3eUVy/AJqef6rwd0LwdIVXJNBT4+AznbCyHAYFKzwT1sJiGc4dTpzE59Ie5h9xF6s7fYFJ8nz3Mcy5RumhfciHRfQdykKQZqMyZQx7PnLEyc8jpLnP1pbhFzxM9hLsui4lkb6UDyr1tJ7bBaalkONsMeZplmHQdFDLP91/HGrI38OTCiBwHlsCP1R2wiNrLWdwZ+g1pedyPS+yXiopw4/MumTvEMLL9S8vkPWP3mXYZNeQSr1tsHhGIT8yZj7nXi8gdr0U4/TT9t47LVDCIeexZ7p7ZkaOW/Gv9V81AefYv8HEP7tCPtqgPOQSom9v4bEkL0IgND+l0JmDCdYAfdSwGKz3zFuSLzBGa62Tw/I5YwffGWJ/HO4bc6nbCH+6znydtHNs+9UldzPedndp1tYM59cwmibW5Y2zw1zeZa5ow5v8TmaeNo3W32LmJTtAfUOxLmuZIlY8bh56qpstVXcz3vZ3adjeeYzsEWjkwNWs/DY/yb42pqoKbsEslnd7CjXHvUotZ8O306xUO35qm1/wxn8Mz0FUS2jPZsNwfQdI4L/01khL4GxRKubF9IbnaHl/t4nlrAwgK+e0RNwnP+PC8DRoQYsLo3+VqIW04dn/7zNAGp45i6Ue4qIsRAJY+eEcIodryb6IdXZCkr+zsUIYRektSEMNKx//XhWEM+cxf3dyRCCH2k+VEIIYTFkJqaEEIIiyFJTQghhMWQpCaEEMJiSFITQghhMSwiqXl6eaFQKLouKIQQwqJZRFITQgghQJKaEEIICyJJTQghhMWQpCaEEMJiSFITQghhMboeMmjrhfeQUfj7e+BoawVNTVQXnOHc+UudnrEmhBBC9CfDSc0mlIhJodRfOMW5YwWoGsFK4YHniBjGjVOSfDKd+j4KVAghhOiK4ebHhkzOHNpHRm5zQgNoUpdQlH6CPGUAPvZ9EKEQQghhpG72qTVxQ+cTm4UQQoj+Y/ptOKw98B4Zw5DqTH6pNUNEA9adLPvv+YRoLgPyDrzMlu9rYeRiXnx8HE4AlJD89w18md2PYQohxC3M2stnSJwxBZVBM5hweyRBwcE41qSRejZrwPSnOTg4UKdS0dTUsfqoxMXTDScHBTdUdaiN2Jadiyduzg7YNKmoa7dCNr+mlOMbFkTl9xv5358qm18uPs3xHCfCQ6z4Nf4dErKlCiuEEP3F6KSmLr9E9uUL5F2vwz4ggiF25VwvrWYgnML1JzUFdg62WNNIQ61xSU1h54CtNTTV13ZIakBtDmdOljBiwR+YYptC8uVaFKMX8NSjfpz6xxZ+yDVmD0IIIcyle0++HuRBcMxEbC58Q2aJGaIykaeXF+VlZajVfZRUFKNZ8OfFuF/OxD3MhWPbtnKoQBKaEEL0t+4NFLlRQvbVSgYPDujlcG4S6nPs+TYT93FhVB77jERJaEIIMSB0+44inZv6bh3u0UtZdZ89B9/9gKvhK4md4dONETdCCCF6W/fOxYM8CAjyojQ7qZfDGfjco5ey7B57Erdv43gxsOkD5jyxkuV2H7B97xU9/XbjWPTyYsYogbwfeH3TPqr6NGohhLg1GKyp2fpP547oaAa7uKLQlLRS+hEQNRH/urNk5jf0RYwDhvukFSyfAYdaEhqA+gr7/v4BWaG/Z9UDo3VfJfgNxU8JUEvaQUloQghhLl0OFLF1HknAiBC8ne2aE1tjHaVXU8i8kkf9ALn3Y18MFAmcv4bld3i0/p397ctsP9hxnhqQtZt1/zjSbl2ne5/nxak+UksTQggz697oxwGmz0c/mkTBtCc2MCuwlrRPX+bT0/0djxBCWC559IzZxRDiB+QdYY8kNCGEMCtJauYW4o+PopLkvdLsKIQQ5ibNj0IIISyG1NSEEEJYDElqQgghLIYkNSGEEBZDkpoQQgiLIUlNCCGExZCkJoQQwmJIUhNCCGExJKkJIYSwGJLUhBBCWAxJakIIISyGJDUhhBAWw7QnXw/yI3RyDINtrnPux0SKu15DDGSDYlgS+Qem+rtho7m8aVA1cD3jNdZePdO/sZnNY8TNnYvX+U08eeHn/g6m56wX8c6UOylIWs2G2g7LbJ7gf+8cwtHEdcTLbVHFLcKkpGYfHIFn6XVKfcwVjug7jswOW8lU2+N8/O3HHFZX93dAJnqMuPsiSP/mRXb0dyj96P6QaYSUHeGtjgkNoOEDDhVt4qER89iR/jXm/oYdnZ5iyx3jcS8/xAsn3+OcmfcnhC7GNz9aBxMcCDmXrtFkxoBEXxlHmA+kn9t2EyY0jW41nn9EXMJCC6mlLeW+IBvOXfucbJ0Favg4+wINQ6YRa1qbTDeMYeXoKKrOvcYiSWiiHxl9WnAeFoZr4Rmu1ZgzHNHnbvoHD926xvvfQaDqAoeKDRyUlXtJrfTmzmGzzByNK442DRRUpJm9RiiEIcZdv9mFMcy/msuJeUCweSMaqMa8y+2LxmAHQAlXti8kt+XyeOJ7TLg/SHOFkM+FDY9xfaAmf4fneHtGDK4tf0/fQbzW4vL01/jzxVPNf/i8TnzMUKCa1IOxvKN5ymnk8G08E+YGQE27vqnZPD8jljCH5tffLp5C7O3j8FMC6mryMnbwRtZ+ynXFNSiCuaGxzBnmj4MtcAMaKi5zOK2QyHDY8dNbJOuIP2juDmZrb6fpMgnfvMiuDpvXjrlz3Lo4Eua5kiVjxuHnaqNZqZCL5z/i7ZwktL/eGWHxLBnuCFWn2J54honjHibSxxFuQE1RErtOvMWBXm/eiOJuX1fqi77h3wbLpXCkqIZJQ8Zz/4XvuygrxM3PqIeEuo66j9DGJJIzrwPBjP5NAEUDaKCI/oeEKnHxdMKGeqpLKlAZUSuxc/HEyRYaqkqo6LhC5LvcPt+WS68+QWnHXXn8J6OfDqXk3ccoLDGwA4Ujbm72WDfWUl5aTdtm7sPvtVl4d1l3ruTa5v+k5Go330OrKTwzPRZOtCUrU8tNHBHPEuI7JYeJI+JZ4lpEgxMkJ/+VXZVluDov4clJU2lIfZG4/Jz2Gxo0g2emxjKkaD97MvdwuKEMBvkT7fYwD4+fgl/DKbYffI1j7VZ6jLi5EaQnmN6npi/uNo5MDd3Iw07H2ZEaz7GWhDQogrmjVzNTvYO1Fw60S2w4vcTmO3y4rnaDSx+zLecA5WCOEZ0AACAASURBVNYzWDgulolN+4lL/oi8LuJSOLrjam9NY20ZZdVdjOyw/gP/+5tpVKcs5ZmiLjbs+hKf3+FP8pHVbDDxYsu43xLAJF6e9HtIXckrUlUT/ajrmppDJMN9yrl85HofhDPApf6La3e9SuD991L61d52ixzvjsH50tecM5TQDPqGvJe+6fLEd7Nw8ID9P77Ijobmv2sqt/Hq2VFs9p8B+R+1Kztj9BJCC+J54bxWoriRQ3LpJpKPOrL59gYa+jJ4p9Us9Mtg++F4UrVfv3GGhPRXcIxez5+9j/NqUYezt6MPnHiFuPyM5r/VB3j/xFBC74/gLujdAS1O3rhTQ7YxSaq2nFLGMNgJGKgtCEL0ki6Smg2ew4Ih+yeKG/smoN6loqJYZdIadRXF1OldmkThT2kEzJ+H+7/3ttXWXNYQGFFFztZtXe9AXU3ZdfNeyhp+D32j5tKe1oTW+lqjrtQ0g0jfalKPHNB9vq16jSd/MkOABkz0G0lN9sb2Ca1VDnvyy3jbbzYUdWjkrDrDvpaE1uKG8QlZXV1KsbE/DTtHbCmjwJgkVV/W7X4uY39Ljg53EGhfxFFJmqKfGU5qTuEMdS8gM01nL8itSUdtzf7uGJwvHeBcThfrGtR7zY83F3/cHGvI6+8srCXYxZGaHP3z9GoaG7CxcezDiAa28cGbeHmEK6Xn/068DDwS/cxwUrN3RGnjRcT0Bzst8vzNDC4fPUCOaRUhC9ChtsZqhkTYUvjFph5u17KaH41XSrXKAVc76PfqpcaVimqilRGA7sTmYG1DQ0M/dxypG6jHm8EO0GU1zNYNRyOKddeJK6tZVPwc/5hwH7HXjkpiE/3KcL2gKJHEH7/q8N+vFHOdcz/eiglNI/VfXCsOJfD+e7G5fwo+RT+Tbak34KCeBj0j92x65SZrCSTnOBI5fC4OuhYPmsEzd+0gzoQJ/64Kf93bMtKxvAwcAmcTqXPpSBb6+3A1b38P9tALynMoxQEPY96ovSvulFNgcEBQz1RXHSG9xpuAnnzwQvQCufdjtzTX1hSRjxM2xoncn9+34AnpSaQXQWjAbPwGNb/ioJjBwrCNPBxk2yt7OHAhgbzB/0HciIeJbPlFWg1lqu863pi1gtCyXXxU2HGtM+SWDGXimJZ13AhyeZjlUfG8PWMlM3oSUNUmduSNZPn41cxWtk0DcFDMYMltLxFZGs/bHQeJ9LXGE2RVQID7vV0WneYxFNvaHFKlv0vcAowa0g+AMozbJo2krSehcsA0P+of0m9OMfg8+SrDbZI48fbavh2d1wNeARt54zZ/vcuvJi0krmMCGTSD5XcsYaJP87ffUJ5Dalo8qR7PsmyUo9bcsLZ5aoDW6z4sjN7EbL+WDZaRfGAFf9M+yVpNYUn4Qib6++CgQDNPrXk/7xef0T2IxGYhz98xmzAPza+yroy8yz+z5+JHbcPwQWu+nT464unOPLUOn6GX30beiG77rNvNAewF44M28XJgDtsSXzMw/yyKNTHPEVn6IYsufN9r++5MhvSLgcH4pDaA9U9SW0zwmmUofnyMi8fy+3C/QmhYL+Vv06dR/etqXtB3VxHnl/g0xpsjh55jk1kPD0lqYmCQ5sdusrprJj71SVyVhCb6S+OHfHO1gdEBjxCos4ADSwJHYJN7qA/u0l9OdYMNg13GIONCRX+SpNYt9+J7RxAVv+y8aZodhWX6d9YhstzuYIm9joU2v2eady7fXDD/Hfohja3nUnAa/RKfxjzFeLPvTwjdpPnRWIGvErk8pvNVaNWv/Pr68+h68ocQQoi+JUlNCCGExZDmRyGEEBZDkpoQQgiLIUlNCCGExZCkZgRPLy8UCuOepyqEEKL/SFITQghhMSSpCSGEsBiS1IQQQlgMSWpCCCEshiQ1IYQQFqPLIX32Q+/m9mE6nvxXmUHyiXQGwJNnhA5Ndx2gymMfLl++0d+hmIWjiwMLx/kyYbQLbnZW0NRI2ZVs3vt3CUm6Hm43/GMqp1fg+P4qrCz34XcDXuD8NSy/w6P176pT23h9Z2Y/RnQvQ557luDWx+ZVcfWf88m52I8h6dGrx7QFHw9GjVOvvXSQk5fLzR2L6C1266mLtsPuc8tMaDh58tpSP2qOXeK9f2aRVAduDg48PDOE5xZZ89q/iuj01LKLO1He9RdUkx7EIfGr/ohaANm7N7Bud/O/Qxa8zIL+DQfYS+5be8kF4BH8X/xdP8ejR28f0xZ8PEjzowVqumsGqrJfsM3u70jMpKqY1ZvP8OKJapLqml8qq6khfs8lzjh4MsNT10pfoUjNpWHsgzTJr17cZHr/mLbc48HC3o7A6gXqw2xRpv6LQf0dS59rpKFR/9JBpxKxsx1L3bg7+i4kIXrKTMe0pR4PcpuMgcpzJsv/NIdAZS3Z377D9oMlxq03MpJ6m1wczvyiY+GdLPvv+YRoLmXyDrzMlu9rYeRiXnx8HE4AlJD89w18eZPV8hztlCy8J5RxFbmsK9ZTqOljFLkLqB4xD2XyLwMg6dsTMmspD00Zirtt86Gorswh7ftzON0fSkbcZhI7lV/M3AmheDtqypdeIeXAJ3yZrP37GMuitUsZ49jcZ7U9K4ZF94/DTwmoa8k7tZP43ad19ocrQ+aw4ME7CfG2RwGoKwvJSk1CPWYatV+8wpdZHVcIZdZ/zGdCiA9KBdCkpjTnJIc+20myvu/BFIpgpj3+e2aFOLe+pC7NJPGLD/k+q78e+BSK3cznGBETirNmuIG67Co5P24j92RS5+LKeXgtXsawYCcUVtCkKqEw8V9canqQSXcHASVc2b6QXH3HnLmO6QF3PPQOo5LaIPsAhkZOws/DDqtBoK4sIOvMMYoG/CgRJS6eTthQT3VJBSojHrJj5+KJky00VJVQYcQKCkd3XO2taawto6zaiEffKBxxc7PHurGW8tJq9K4xNoxAJYA9gWHj4OAPXW8baAoeRmNZClZ1upYe4f231SyKnYPy5828f1RzUsj4hLc+rGXV/GAyPt7Mvq4Smt73cB9+r83Cu8v6fyXXNv8nJVf1lzD2exh352heGt98Zqm+epm3dpWQobd0LtZXcmmaMoomwLqrMHvI8HvwYNoTzzClMYk9731CWnYlauxxD49h7n1zCbG9QlbH8sufJKp0H5++/h5FLR+6MpQ5f3iS5c6btS58TvPpq88391n5zGFZKKT+v1fYnlGLcuQcli5ezNLS/2H7wcr2IfnNZfnSseTt/ZC/pmRSqgKFczDRcx5ljjukdfxePWey/I+3U3rgA17/Z2Hr70AZMpfYPz6J0z82c6hHiS2Uh55bQXjpIXb+/VDzZ6RwJnDsNO5dtIbliSZc7PWaGDz+uAbf0n2cf/MJGlrf9Dx8Hl/DCKcNXPhJK7EpHsH/T8twSnuf5A8/p0kNOD2Cz5JlRDgC2Xs5un2jwT2a75ju2+OhrxiV1GxdnKlNT+T46UqasEHpHEpI1GSakhMplkeYmcfpdLLvCm6uqaV3Gvagxx00edpCea7+duXiJD7dVMuC1c+w3K75pKAYvYCnHh1M8rbNHCroyRf6DXkvfUNeD7ZgqlNHzrHwiBVDh7jxxD2B/GF6HWUHqvUmtkHllVhbDaFxMFgX9GGgHTjds5TpVof4699/oLT11VpKzx7io/MKlseFtbvgcZq+mClN3/P6zqT2F0KqTPb97RMWvLiCuRc2kJDTYT/e8P2mtuRSlZHA9p9C+c+wGD0XSrUUZjYnNAB15RWO79yNX8hiaDdKzplpj06j4adX2PlL+9+MKiuBLV8s5sXH55Px1u5u/x6c7plLVNU+/rpd6zNSV5J9KoHtV2tZtXIBE37exvE+PAdZ3bWCoU0HOPnFtvYLVF9TuNUWm+efw/fiQvI134Pjb3+H+7nNnNm7t61s1ecUbq3G6s/P4kxXzHtMD5TjoTd1mdRqL3/H0cvarzSgqkjn3NWpjAv2ovjidfNF12MqKopNq07WVRSj84JID3V1KcXVJq1A2XUjVij+ge2vGFc7azOKJkewKbxsuJjqNDvfbmDBn59huXcm7mEuHNu21fiEZux76AHTvocmLueW8OKHNby0dBSPjUhh3QU9RcsrsGJI7wTZBf3vQUH0iMFcPfGOVkLTov6B7X/5oX35MH9yT27WU7PPJOWyDXNv94ec9lmt6uy+TrUldZOe7zkvge0fzmFR7Aamuyuamx9VlZReTWT3W6+Qrb2aIoZRg3NIOapnW5knybKdT7QfJHQzq0UP9yfv7Gbdn1HxDyTnzSJqAhxP1FXAHHxxG+1L+a+b9Cz/nJLLv2P4bTPIzzkALMMrtIrCTXt1lN1L/qnFDBvZ1T7NfEz34fHQV7rdp9akbkKpdAQGclITeqnPsefbTJ5eGEblwbdJ7FENrUXvNT92S5OKj1Kr2DjaFS4M5CkoQ/FxqaXK6Ka5ofi4GS6vbgIbpX2PI1Nl7eP9N/dpvWKP34QFLHp6AQnv7iSj5WcydDDudZUU6Y8IsMHesWfxBN6zgfX36F9eVRkK9NU8tynYu9ejMvS9NYFC2TIPzx2lsp7KCn1l63s3PLMc0zef7g8UkXGTZjUhdgNzQxVQn0nCfxvbxHKdQfXQ4Da0y5Lu0UtZdo89B9/9AO/FK4lVbyX+QKH+Pj6j9H3zY0dlDV30g7q60P9zTQuorLHHzxMjz8eXKSyzJ8RAeYUVNNSYY+BELXnHP+HQqJeZe+8RNu7R1AQvF1BqF4o30HHsiCYioIHaHlToVXVqsr9dx/aDA+Xk/DO1pctw9wT0Tc62AnVNSz9fKSqVLQoXQEdis7K3NWKfZj6mB8Tx0LsMpiZl8AxuCx2sI/PZ4e3tSnmZ/us00RN3MmaoAlCT/d0nJvQZ7MM6vx5chxj8obb8+BO3b+N4wTkSNn3A1fCVLL83+OYeDmulZPU4F3KuVeotcsPVmcam60b2Hzgz5+k3Wf8/b7J+7VLG9FqglfycXkDIxLm461zuwbQnNvDs/GDN32qS03MYMvZO3d+PYhzRIQ1knMzRtdRok5e/yfLpuvag7jxVQp3E+QJ/xkzS/YtRRMUQUn+O5B5c4Rz/JR33qDl6PqMuuE5j2cvN392zvx3dS7/rfMrO5eMasVr3YsUyfELquf7rAc0L73M90wmfqffqKPwIfpG+RuzTvMe0acfDzcFgUlPlnKXMfSLjoiJxVdo0r6DwwDvsN4TaX+Nibk2fBHnLmTCWIAWoc75nZ6L+E7QuVlcuYe3mT5Od7uXuk1awfAYc2r6N4y3NKOor7Pv7B2SF/p5VD/TWCcB8IsaPIP53gawItmVo888Sf3dnXnp0FBE1V/nolL7DfwiNwUOwyjtvZEPD2ObaFJD3y27Seh56q6pvE0i0imHV8jmMdNZ84gpnAsfNZdmaNUxXJpGw50pb+YOf8LPVHJ56fFpbeUDpfycLVj+A89FtnQaJmEphDYGz/i/L7h9HYOs+FHjfsZR7hxdy/CftHVRy6LND2Mx4nsemjsapNSR7/CYsZtV9Lhz7Z/cHiQBw+hN2XxvLqqeXMjncp20fCme8w6fx2PMbeOpeH93rjhlNiLL5n+4jbyeoJ3FoafppG5etZhDx2LPYO7UlJSv/1fivmofy6Futg0QAqr/4F6WjlzNi5iNYaeK3cluMz6pleFJl1D7Nd0ybejzcHAaNjhhvuL1mkAOuwdGEBnmgtAaa6qjMO09G5iVUA6Te6unlRXlZGWq1eZopzL39jiJ/9woLwms5/rfOo9m6ZPUCqicXcCNxFfbJ7ee1dLzvXva3L7P9YMc5LUDWbtb940iP3oO5RQR4snDqYIZ5KrGxAhrryTlzhfjDlZzR97s08NnoFLWUtQvHoqw+zaevftirSQ0AhQ/RDzzKtKhg3DUtUerKQrJ+2c3O7zN1zCMzfZ4aAE2ZJPxlG8exZ9oTrzArsKVc+/lLk5dvYGT6B2T4zmJCuH/z3LkmNVUFp/n+s89I1tVHY8o8tUkrWP9AqIEPRNd8KgXed8xn/vTbCXTXnJrVakqL0kndv5uDGZW6m9dcp7Hs6bmEKKE0+T3++sU5neXcY79j9DADIZUlcfKttR0G/PTiPLXRZ7sc0m+2Y9rU4+Em0XVSuwlYVlIL5aEXVzAqcxuvf9G9DvCmuxMpD/gFt/efsZgJlb3hRvRXVNxRjPP2WKNu4hqy4GWWjXMm7+ArbPnWtBqzEF266z3jkhrmOaZNPR5uFpZU67QQmXz5+vPdTmgAVj8dQOl2B/WBXZe9dTyIOnIINqe/MvIA9mdMkDNUn+agJDRhBlb2tqjrjRtJ0/vHtKnHw81DkpolqluHXXIdddEv9HckA8fwBaisfkF51Ng7kocyxFNN9sHe7UsTAkJR3PYqo8c7kXvMyN9jbx/TJh8PNw9pfhwA2xdCWLaOfXdNqnyyd/8XuWn9+Sw5yzTQB7oJIcRNrzT+bo72dxC3CGl+FEIIYTEkqQkhhLAYktSEEEJYDElqQgghLIYMFDFC8XV5EoEQQtwMpKYmhBDCYkhSE0IIYTEkqQkhhLAYktSEEEJYDElqQgghLIZJox9t3cMIGT4MdycbrAZBU80Vzhz/FbmHuRBCiIHAyKRmh/uo3zDarYys9MNkVFbSdNPfBrn7YsM/5CGfco7+8iIbquTp30IIMVAY1fxoP3QywfUnOH78GAUVt3ZCA4g/u5QX0quJDv8jk/o7GCGEEK26Tmp2YYxwucqZS9exsGfJ9ci5/BSuOXkT1t+BCCGEaNVlUrP3C6A+LxN5kpgOvfVcdSGEEL2iiz41G1xcoKoQlIMnMnrEYBxtoKmhkoJzx8i6PtD7k5S4eDphQz3VJRWojGg2tXPxxMkWGqpKqDBmBSGEEANGF0nNARt7sPWZTFSADTlp35FaUgN2g/EOmUgoh8m83tA3kQohhBBd6CKpOeNg74D3UGtyTu7jWoXm5boCCtIbsY8IxfZ6OvVmD7O7VFQUq0xao66imDqjSlZTr/YmxNkVKsu7E5wQQohe1kWfWg11Kmi6fp6rFR2XNXHDyQNnc0U24H3Nvy82EDlhE58On9bfwQghhKDLmloJJSUNBCitdSxrpPGW7nKax/3DbUg9vpq/SE1NCCEGhC5HP1ZmZVDq7od3x/Sn8MCptuQWvpuII7aKIrIkoQkhxIDR9Tw1dSaXrigJGReJo6bCZuU4jJHjw1BfG8j9aUIIIW41Rt0mq/byD6Q2TGLU5Aext24Z0n+QrBJzhyeEEEIYz8h7PzZRnZPIyRzzBnPTuaX7FIUQYuCRR890iwORflEElOdyor9DEUII0cqkR88IAG9ix77FQ17lHP3lA1L7OxwhhBCtBo2OGH/TN6J5enlRXlaGWi13qBRCiFuZND8KIYSwGJLUhBBCWAxJakIIISyGJDUhhBAWQ5KaEEIIi2ERQ/qLr1/v7xCEEEIMAFJTE0IIYTEkqQkhhLAYktSEEEJYDElqQgghLIYkNSGEEBbD4OhH+6F3c/swBz1La7hy/Duu1Zghqu4aXc7hl2s4FOfHXzL6OxghhBB9zWBSq1OpqM46xq9XKjss8WLonePMGFY3nXPl20s5/Pb3rmxd68A1M+8u4DelfLriKl5FQ3lqtSvfmXl/QgghDDPY/NiUf1hHQgOcAvC0LqdyINXSNNYf8oGRxbww0tx7amTdgjxUP0RwtyQ0IYQYELrVp2bv5Y2ypIDy3o6mN3zrzvHiAu5aWGfmHTVhq7Tj2nlrs9cIhRBCGKcbSc0BNw8HSktyez+aXmHNsUvu2A2vZGV/hyKEEKJPmZ7UrIfg7lpJaXGDGcLpHe+fdaXOsYIJk0xf187FE08vT1yUg3o/MCGEEGZlclKz8vHDvTyP4npzhNNLrtpQSQneZu9XE0IIMZCYfENjdw8PaktSGcg5jVTrbvf31VUUY0xvXMCkKkIdHDiU3M0dCSGE6HUm1tT8cPdooKRkQA4R6TO/ffYy3z2bA0e9+Et1f0cjhBCihWlJzWUw7lyntMJM0fSWyEZczbj5LzYO5e4tQ7Cbcp3/djTjjoQQQpjEpKTm7DMEq8LsgTmUX1tQA854UGTGu4pc+9GZs5U1+Eebbx9CCCFMY0JSc8XV04bykjzzRdNLloWXY1ftwvGj/R2JEEKIvmR8UrMZjJt9CcUlZoymVzQycVgpdRed2drfoQghhOhTxo9+bMjgzMGb4C7B95QywXMwP2206+9IhBBC9DGLe/TMummFkOHJG2bPv1bUq+oIGNVIgLl3JYQQwiiWldRGl3PPMHcSPjD/HfrBmvU7/VDOPMN3W0v5rdn3J4QQoiuDRkeMv9HfQQghhBC9wbJqakIIIW5pktSEEEJYDElqQgghLIYkNSGEEBbDIpKap5cXCoXJDxwQQghhYSwiqQkhhBAgSU0IIYQFkaQmhBDCYkhSE0IIYTEkqQkhhLAYRgwZtMLRfxKjhnthbw001lBw/hiZBZVmD04MDIHz17D8Do/Wv6tObeP1nZn9GNG9DHnuWYLdWiPi6j/nk3OxH0PSY9rQTTzncIh5aZ/3fGNuL/P5qGq2Jb3Fd3JzOyF06jKp2QdPZ4RNOmmJiagaAWsPBo+ZyOimnzhXVNcHIYr+lr17A+t2N/87ZMHLLOjfcIC95L61l1wAHsH/xd/1czx6WC/l0eE2pCb1QkIDKPuK5BvP8WhAFN9lp/TONoWwMIabHwcFExxYxZWLec0JDaCxhIK0S1iNCMPZ/PEJcdO6P+ROAivT+LLXGjVS+Dg7l8FB9/LQoN7aphCWxXBSs3fFoUGFqmNTR2MRFY0euCjNF5gQN7VBjzDN34Hs7M850Yubzc4/wTmbMdztO6QXtyqE5TDc/FhbQgVenQsNcsNpUAnZKrPFNYDZEzJrKQ9NGYq7bfMno67MIe37czjdH0pG3GYSO5VfzNwJoXg7asqXXiHlwCd8mVyiVW4si9YuZYxjc5/V9qwYFt0/Dj8loK4l79RO4nefRtdHrgyZw4IH7yTE2x4FoK4sJCs1CfWYadR+8QpfZnVcIZRZ/zGfCSE+KBVAk5rSnJMc+mwnycW98BEpgpn2+O+ZFdJWl1eXZpL4xYd8n1XbCzvojlDsZj7HiJhQnB00MZVdJefHbeSeTOpcXDkPr8XLGBbshMIKmlQlFCb+i0tNDzLp7iCghCvbF5KbrXtvjh5jCFEUcagwV8fSO1n23/MJ0VxS5h14mS3f18LIxbz4+DicACgh+e8b+LLj9m98w7nieTzkM4vAvA/Rs3shblmGk9qNa1zOCmDkUC/OXb5Ok+Zl+6AA6i+coNr88fWQEhdPJ2yop7qkonONUwc7F0+cbKGhqoSKTit4MO2JZ5jSmMSe9z4hLbsSNfa4h8cw9765hNheIatj+eVPElW6j09ff48idUtYocz5w5Msd97M9oMtie00n776fHOflc8cloVC6v97he0ZtShHzmHp4sUsLf0fth/s0JblN5flS8eSt/dD/pqSSakKFM7BRM95lDnukNaxLu45k+V/vJ3SAx/w+j8LaQ0pZC6xf3wSp39s5lCPElsoDz23gvDSQ+z8+6Hmz0jhTODYady7aA3LE9/Res99JQaPP67Bt3Qf5998gobWNz0Pn8fXMMJpAxd+0kpsikfw/9MynNLeJ/nDz2lSA06P4LNkGRGOQPZejm7faHCPd3sGY1uZwolGXUuP8P7bahbFzkH582beP6pJ9Bmf8NaHtayaH0zGx5vZpzNj1fBdcREPhY3gbiDexE9CCEvX5ZB+dXE6xU7jib7zPibddR+3jZ9DmHMuuSW33iARp3uWMt3qEFu2J5CaXalJCLWUnj3ER2/vI7uJ1iQB4DR9MVOavmfLzqS2hAagymTf3z6hdMIK5vrr2I83JG/fzPcZlahRU5WRwPafCggMi9ETWS2Fmc0JDUBdeYXjO3eTUg4NTdrlnJn26DQafnqbnb8UtotVlZXAli9KmPj4fPxM/mS0Yr9nLlFV+9p/RupKsk8lsH3rIRSTFzChj2/TaXXXCoY2HSDti21tCQ1A9TWFW/9FzYTn8NX6Hhx/+zvcz23m/F5NQgOo+pzCrdu53uRkxB6HEOhoAzVFHNVXpDiJTzftpmrKMyyf3jyyVDF6AU896k9K/Gb2Zav1rUm2qpz6Qd4EOBoRihC3mC5OL3YMjpiE/eV9/FKhtdLgyUSNbuBU+jWa9K88AKioKDatjbSuohjd6VpB9IjBXD3xDqW6Fqt/YPtffmhfPsyf3JOb0X16yiTlsg1zb/eHnJx2S6rO7utUW1I36TnJ5SWw/cM5LIrdwHR3RXPzo6qS0quJ7H7rFdqdGxUxjBqcQ8pRPdvKPEmW7Xyi/SAhT3eRrkQP9yfv7Gbdn1HxDyTnzSJqAhxP1FXAHHxxG+1L+a+b9Cz/nJLLv2P4bTPIzzkALMMrtIrCTXt1lN1L/qnFDBvZ1T6DcVdCtc6mRy2q0+x8u4EFf36G5d6ZuIe5cGzbVg4V6E9oANRV09BVCELcogwnNftQ/BxyOV/R/mV1wXmKh4fhbX2NAp3NK5ZoKD4utVQZ3TQ3FB83w+XVTWCjtO9xZKqsfbz/5j6tV+zxm7CARU8vIOHdnWS0nCOHDsa9rpIi/REBNtj3sAYQeM8G1t+jf3lVZSjQV/PcpmDvXo/K0PfWBAplyzw8d5TKeior9JWt793w1OfY820mTy8Mo/Lg2yR2ldCEEAYZTmqDrLGqLKdz134d6gYlNnZAjZkiG3AKqKyxx88TI8/HlykssyfEQHmFFTTUmGPgRC15xz/h0KiXmXvvETbu0dQELxdQaheKN9Bx7IgmIqCB2h50lqrq1GR/u47tBwfKyflnakuX4e4J6JucbQXqmpZ+vlJUKlsULoCOxGZlb2vEPsupbgBHh65HKLpHL2XZPfYcfPcDvBevJFa9lfgDhXpq9xp2jtgYEYUQtyLDfWp1NaisbXQWutFYQ21/DWTrWoM8HwAAIABJREFUF5X8nF5AyMS5uOtc7sG0Jzbw7Pxgzd9qktNzGDL2Tt1XDopxRIc0kHEyR9dSo01e/ibLp+vag5qGjrVodRLnC/wZM0n3tYwiKoaQ+nMkd7PpEeD4L+m4R83R8xl1wXUay15+k/X/8ybP/na0Mbe7MUI+ZefycY1YrXuxYhk+IfVc//WA5oX3uZ7phM/Ue3UUfgS/SF8j9pnGxYoGcPBmkoFSLQktcfs2jhecI2HTB1wNX8nye4MNvvdApSu2N4q4NvBHagnR5wwntcZMLlUEMDJwMEprzWvWzrgOvwPP4jMU32K36qn6NoFEqxhWLZ/DSGfNaUfhTOC4uSxbs4bpyiQS9lxpK3/wE362msNTj09rKw8o/e9kweoHcD66jYSe5TQU1hA46/+y7P5xBLbuQ4H3HUu5d3ghx3/S3kElhz47hM2M53ls6micWkOyx2/CYlbd58Kxf+6mBzkNTn/C7mtjWfX0UiaH+7TtQ+GMd/g0Hnt+A0/d66N73TGjCdHMfXQfeTtBPYlDS9NP27hsNYOIx57F3qktKVn5r8Z/1TyUR98iX+tjqv7iX5SOXs6ImY9gpYnfym0xPquW4UmVUfv8rvgK9c7BjLfWvdx90gqWz4BD27dxvKVpVH2FfX//gKzQ37PqAX1J3YG7Pb3h+gW+MyoSIW4tg0ZHjO8iNdnhPDSGkUEezYmtsYaCjCSy8ssHzCARTy8vysvKUKv7oMlL4UP0A48yLSoYd01LlLqykKxfdrPz+0wd88hMn6cGQFMmCX/ZxnHsmfbEK8wKbCnXfv7S5OUbGJn+ARm+s5gQ7t88d65JTVXBab7/7DOSdfXRmDJPbdIK1j8QauAD0TWfSoH3HfOZP/12At01p2a1mtKidFL37+ZgRqXu5jXXaSx7ei4hSihNfo+/fnFOZzn32O8YPcxASGVJnHxrbYcBP704T2302S6H9DPoEd6YNg/H8y/xp7z2A0Y63ksz+9uX2X6w4zw1IGs36/5xxOjtCiGMSmoDX58mNXFru+s945IacP+IraxwT+OVpL/22l1FAv1e428hZcQfeY0vb/ojV4jeJ4+eEcIEVva2qOuN68z6d9YRsp3H8FCv3SQ1iiWBQyi4ulcSmhB6SFITwiihKG57ldHjncg99pVxqzR+yGcXG4gMfKR3QnB7kOhBKXx2Te7QL4Q+0vwohB4d++6aVPlk7/4vctP681lyQghD+viGRULcPErj79Z/myshxIAkzY9CCCEshiQ1IYQQFkOSmhBCCIshSU0IIYTFkKQmhBDCYkhSE0IIYTEkqQkhhLAYktSEEEJYDElqQgghLIYkNSGEEBbDqNtkKVwjGRk+DHc7oLGO0qunyLhcYPiR80KYk40tsTOHMWW4I47WQEMNl49ksSGlnrL+jk0I0W+6TmoO4UTcNoSqtO84WlRDk7UzzoPDGTmskbRL1/sgRCE6sFLy0qLRjCy9ysfvX+BATRP+vh48dd8YXnc79/+3d+eBUZR5/sffhM7dCXQuCEmAhAAJpxgO8SCIyCJGFBQZEVFwf+jgKLO6juO66irjzx39uY6jMsAuOLqKB8qhzIjCRIIiEDnDHUMCJCHkDrmPJv7+SAghdCedOxSf11901VNV3+5of/p56qkqnowrx7GHw4iI0TQ5/OgbGk5l4nckZZfWPOn6fBFFZ3aSZO1HkGv7FyjSUMDIIIblpvD4V3nEltY8fz39bB7PfJJK5fAgZuu/S5GrVhOh5odXjzxysyouW1NZ7kavwB7tVJaIfVn7TjD3b+cu742VFnAox0xon86oSkS6glY9esbd2x8nztX04AxtFI/d9Hui6md46loWHPgUvH7PO9Gj8KhbUcCe2Ed4t7Tm1XXBS7gjNBQ/T2ecTYC1hJz0H1h7eBU7L/vg6h+nhIStC/hTRQyPjbiDqN494XwBR+Pf4PW8xBa+j+uZ/4cZhNX+lMmIfYGlW8pg0ByeeWgUZgDy2POXV1mf2sJDdCYnM8GWcrJyO7sQEeksTTwk1Bn/4dPwz9nEkYz6vTVXekTczLAeZ9i7K4Gydi+zcfYfEuqGt68ZZyopySuk3IHHobp6+2J2gariPAobbuD2FG9G9+T7b59nbYNVkyJXMZNP+c3RbxpsM4mbrLF8f6E0p1HERDzKzF5pfLp1Cd/YrOlGfjtxAc5Jh/Ef0J8zR/6XT3PiyXB9nNduCmDb5ufZ2NL34DuW+xZMxe2Hd3hvR17dYlPEDBbN6Efih++wKbWJKUAmT3r2dKf7+TLO5ZfUmzA0jcD/nIx/k4PaRaS98yJ5p1v4HuyYdPMQFril8sjXRTqnJnKVaqKnVkV2cgpBoyfQv2I7p/NKwTOUsGEj8K0upbJjauw6yj9hT95/ERUUxNq09IvLu81mfN8qjsZ9Y2ObWL6v/7p6HxuPfEp4r7lEesI3xfYO5kl4CHz6/ePEXujRlb/N7za38j3kxvPx22XMevy3LHT9Eyu25mGKmMUT9/Ziz/J3iMtszZzWv5Px+7+T0coSW2JSdASPhOSx/EMFmsjVrOnhx5IEDu0fwaChtzK+bkp/PPuy/Rk2rP0LbJ1yCnPLm7VFRWEul59BvCCdtacSeXPwrxiR9gYJtUsDg8YxIG8Xzzl8qEposvNRwtGDb1wMtGZo/D0A5QdZ82YVs/7ltyz0T8IS6c3O5cscDzRrCQU57RsdTb6HeibdGMEj/QpY/uHZFn1eImIcDp1Ts55L4MiPCZcu9O5F97Jih794jKI06weShs3mn7whoRBgFDNDAzhx/FMbPRRPIn0fZe6QUQR6O0O3mqVV5SXQHY52aOUNWI/x1bdJLJ4dSdHWN9neqh7aBW03/OioSTdGsCBUgSYiNVo8UcQroDdluduugkkiDX3DNydn8ljobDwOfEqpdwyRzsdZm3V5zyWw1wv8dqQHSQmrWJWzixPWmjY9nGey8MaYji78Epaoecyf4s7Wt97Hf86jLLAuY1VsVisvqO/I4Ucn/unmQTzQK5dVH2Ur0EQEaOltsjxHMKDnGU6cKW3jcq4MCWcSKQ0ex0yTJzNDB1N1ciOxNtpNCO5PzuHf8/rZ2LpAAzhn7dyzPhcCbfuK5ezKPMbGt9/n9NBHWXhbv9ZNh+0w3Zl92xAe8M3mz58p0ETkoiZDzcnZA9OFVk6uePa+jmsjnDixP4EyxyalGU/5J+zJCiJqwONEBeeTcHqfzWbZpSX49ZnLTSZPADxMY/mnoOd57ZYFRHrY3KTdWcY/wsJJELdiObsuTH23nmLTX94nOfxBFt0R0cWDzYkH7hjCP5HKy5/nEt8g0B64YyRLBnZOZSLS+Zqc0m8ZfAsRfVxxAqxFeWSmHeZ0Zh7VXSjQ7E/pbz8eAUt4c+wgnDO/4bmfVtkecus2lrkjHuamoJ44OwHVVZzL3Mc/Du0jfPwjjDBz8Xo3gIA/smpsf7vHPB0/m//IannNITOeZeEYn7rXqd++wIqtDa9TA5LX8fz//NjyA7UrN37/0BBGedtvcTJ2L88c6riKRKTraCLUrgydEWoiItL16NEzIiJiGAo1ERExDIWaiIgYhkJNREQMQ6EmIiKGoVATERHDUKiJiIhhKNRERMQwFGoiImIYCjURETEMhZqIiBiGQk1ERAxDoSYiIobh5OtIK7dQwsfewQ0338kNE6YyJNin6W3Evu738afot3nW3cY651/z39FLWNC1H2omItIlNd1TM/UjYmQfzu3/iu3fbWD79/Hk+0UR4e/aAeUZ0+1h0YQV/MSHZTZWVr1PXHYfpg2cjmeHVyYicmVrItSc8Y8cijVpO9mVtYt+ySPjwFGsA0bSo1u712c83ecxra8zx9I+J9Vmg1I+TP2Zqj7R6q2JiDRT46HWLRhfrzNk5jZY/ksa+UWB9HJo7FLqGx00hpDyn4nLLbXfqOhrEor8uT50cscVJiJiAI33Bdy98Cg8R5GNVaUlpfQz94Ccc+1TWVcz5C2uvW8INYOueZxaMZszF7pa161k3O19a38hnOXnVx8gx2ZmjeTW3j2ozP47f2v0YAf4MbuU8X1Gc/vPW5poKyIiFzTeU3Nzw/mX6g4qpT244e3rh6+vN24ODpW6evvi6+eLd8MNjixm75ojVFiTOPZSvUAD2Pkwu978gfzqs5x4016gAd1HE+YNaflfN1lHXN5JKt2DGOHhWN0iItJUqHV3bqIrd5VJ+Ii03HBCbr/tslWet47FK+UHsvIa2d7sj4VS8hoZeaxTdo58etDL3OJqRUSuOo2H2vkqrB1USPsopzA3h9zcQsp/cWyLisJccnNyKbS5QTxZ245gumY6lvpp7/0sIcOKSd+8vPGdu3riQgGZjoRaZQEljpUsIiK1Gg+18nKqPMy4dVAxVwQbvTX32l7amfROrEtERJoItbJzlLp6YuuKNA9PD4qLr5JJIpdo0FszPU6fYS5kxb/d9KbWKirpSS9HzpO59NR1aiIizdR4qP1yiozsHli8GyzvFozFK+Pyqf5Xi3q9NefbbyQg+wdSDzmw3bl08vHAx5FQc++BhXNkFre2WBGRq0eTdxQ5dyIRl4Fjsbhc2MID/yGRmE4c4JyD56mMp7a3NuIhIoeYOfPDezg0R/T8bpILIdhy+USThqJ9+uNSlk6CI+ffREQEAFPEzXfWvchM2EBSw96X9RSJxzwYMvpOhrgC50vJPL6TY9kVHVpol5PwEWkTXmGAczxHE846uNEBNp89x/iQkdye+HUj15+N5Hp/D0qydusaNRGRZjBt/25D061KjnLkx6PtX80VJRx3L8j67m2qmrHV7vSfSB0YTbSvB3+zd1cRr9sY4ZXNj3u3tEmlIiJXCz16poWcJtxCQGU8p3c62kurdf4D/n66iojgewix2cCDuSEDcT4Tx6or+3oKEZEOp1BrkdvoPaYvhT+taVYv7YK/JceR3HMMc20+euZBov3P8Pefv9R1aiIizdQtYtjoK366h6+fH+cKCrBa27FrE/IKIxaOvXyaffF+9v/xaWw9RUZERDqWQk1ERAxDw48iImIYCjURETEMhZqIiBiGQk1ERAxDoSYiIoahUBMREcNQqImIiGEo1ERExDAUaiIiYhgKNRERMQyTL9DUA6yd3Hrh3zeSvoHOZPy0mTQ9uPKqEjLjWRaO8al7XbxvOX9ck9SJFd1Gn6eepF/Puoo4/dcZpJ/oxJLsiO7/Nk95xDH9yOet31nPF/h8cAnL499g8xV/czuR9mFqdK17JEOuCaQ6I4X004fIsozqoLKkK0ld9yrPr6v5d9isF5jVueUAX3Pmja85A8A9BD1zfyfXY0f3edw7wJmE+DYINICCDez55SnuDR7J5tQDbbNPEYNpfPix7ChHdsRy7GQKReVVnO+gokSM4Paw6wkpOsL6orba4wE+TD1Dr763cVe3ttqniLHonJpIe+h2D9FBHqSmfs7uNtxt6tndHHMewq29+7ThXkWMo/HhR7HBnbDJ87jrxv5YXGo+PmtROke2HMN8eziJ//EO2y9rP4eYceH4e9a2zz/FgdjVrN+TV6/dcO57bh5DPGvOWa1IHst9t48i0A2wlpGxbw2r1h2k3EZFbmFTmXXn9YT5u2MCrEVZJCfEYx0STdkXL7M+ueEG4Uz+1QzGhQXgZgKqreSn7yXuszXsaeoEqyNM/Yh+6EEmh3nVLbLmJ7H9iw/YktxZT54Lx/WWpxg4Nhwvj9qaCk6T/t1yzuyNv7y523T85swntJ8ZkxNUl+eRtf0jUqrvZPytfYE8Tq2YzZlU20fz9BlCmCmbuKwzNtZez/w/zCCs9idlRuwLLN1SBoPm8MxDozADkMeev7zK+ob7/+XvHMudzl0BkwnJ+AA7hxe5ahk81Nzw9jXjTCUleYWUO3By3dXbF7MLVBXnUXjZBj5E//q33Hg+nq9WruZIahFW3LEMHUvMtBjCXE6R3LD9wt8wMn8TH/9xJdkXHvfmFs7Uh3/DQq93WLH1QrAd5ONXnq45ZxUwlfnhkPDJy6xILMNt0FTmzZnDvPz/y4qtDcayAmNYOG84GV9/wJ8PJJFfDiavfkRNvZepFjjSsC/uewsL//la8mPf549/zaKupLAYFvzzbzD/zzvEtSrYwrnrqUcYmh/Hmr/E1XxGJi9Chkdz233PsnD7n+q9544yFp9/fpbe+Zs4/vqvqap709MJeOhZBppf5edt9YLNdA9Bj83HfOQ99nzwOdVWwHwPAXPnM8wTSP2aHSv+q9Ej3urbD5eiA+y2OWb/I++9aeW+BVNx++Ed3ttRG/SJq3njgzIWzehH4ofvsMlmYpWyOTebuyIHciuwqpmfhIjRafixGcxT5jHRKY6lKzaSkFpUGwhl5B+O43/f3ERqNdR/TKl54hxurN7C0jXxFwMNoDyJTe+uJn/cI8QE2TiOP+xZ8Q5bEouwYqU4cSMrtmUSEjnWTmVlZCXVBBqAtegUu9as48A5qKqu386L6Hujqdr2Jmt+yrqk1vLkjSz9Io/rHppBYLM/mXq1T4lhZPGmSz8jaxGp+zayYlkcphtmMa6Df0o5TXiE/tWxHPli+cVAAyj/kqxlH1E67il61/s7eN59P5Zj73D869pAAyj+nKxlK8ipNjtwxD6EeDpDaTY77DXJjefjt9dRfONvWTixZmapKWIWT9wbxIFV77Ap1f4Db1PLz1HZzZ/gyx7DLiIG76mVU5hra8DOvorCXCpsrjERNbAXp3f/iXxbq63/YMW//+PS9pFBnNn7Dra/npI4cNKZmGuDID39kjXFhzdd1luyVtv5ksvYyIoPpnLfgleZaDHVDD+WF5F/ejvr3niZS74bTWMZ3CudAzvs7CtpL8kuM4gKhI0Ztps0JWpAEBmH37H9GeX+gz0Zkxk5DnZtt9WgPfSmZ0Rvzu1/2876z8k7eT8DrpnE2fRYYD5+4cVkvf21jbZfc3bfHEIHNXXMfljcoMTm0GM95QdZ82YVs/7ltyz0T8IS6c3O5cuIy2ziCe4VJVQ1VYLIVcrgodaW+hPgXUaxw0Nz/Qno2Xh7azU4u7m3urLy5E289/qmekvcCRw3i/sWz2LjW2tIvPAd2b8Xlooisu1XBDjj3soeQMiUV1kyxf764qJwoKOuc7sRd0sl5Y393arB5HbhOjwLbm6VFBXaa1vZtuVZj/HVt0ksnh1J0dY32d5UoIlIoxRqDsukqNSdQF8c/D4+SVaBO2GNtDc5QVVpe0ycKCNj12riBr9AzG0/8l9f1fYET2aS7xqOP9Bw7khtRUAVZSUtP3J5hZXUb59nxdau8uX8A2X587H4AvYuznYCa+mF83z5lJe7YPIGbASbk7uLA8c8R0kVeHo0PUPREjWP+VPc2frW+/jPeZQF1mWsis2y07uv5eqJswNViFyNdE7NYUX8cDSTsOtisNhc70P0r1/lyRn9al9b2XM0nT7Dr7f9y8E0iqiwKhL3ptta67AbFr7Owom2jmClquEkBWs8xzODGDLe9m8Z08ixhFUeY08Lhx4Bdv10FMvIqXY+oyb0iGb+C6+z5P++zpN3R7TRL66zFBw7S49hj9tebZpPQFglOftjaxe8R06SmYCbbrPR+B4CR/R24JhHOFFYBR7+jG+k1YVA275iObsyj7Hx7fc5PfRRFt7Wr9H3HuLWA5dfsklrxY8PEaNSqDVD8bcb2e40lkULpzLIq/Zrx+RFyKgY5j/7LBPd4tn41amL7beu5genqTzxUPTF9oBb0PXMevwOvHYsZ2PrMg1TdwiZ/G/Mv30UIXXHMOE/Zh63Dchi17b6Bygi7rM4nCc9zQM3RWCuK8mdwHFzWDTNm51/XUcrMg0OrmZd2nAWLZ7HDUMDLh7D5IX/0GgeePpVnrgtwPa2QyIIc6v5p2XQtfRtTR31VG9bzkmnSQx74EnczRdDySnocYIWTcdtxxucrfcxlXzxEfkRCxl4yz041dbv1HMOAYvm40uxQ8fcnHuKSq9+jO5ue71l/CMsnARxK5az68LQqPUUm/7yPsnhD7LoDnuh7sGtvv6Q8zObHapE5OrS7eHHl9TNW89M2EBS/XMPbpFcM34Q9k6xlJyIZf/pNrtdQov5+vlxrqAAq7UDhrxMAUTdcS/RI/thqR2JshZlkfzTOtZsSbJxHVnzr1MDoDqJjf++nF24E/3rl5kccqHdpdcv3bDwVQYdfZ/E3pMZNzSo5tq5aivFmQfZ8tln7LF1jqY516mNf4Qld4Q38oHYup7KhP+YGcyYeC0hltqvZquV/OyjJHyzjq2JRbaH13pEM39xDGFukL9nJX/+4pjNdpYFm4kIbaSkgnj2vvFcgwk/bXidWsThJqf00+0eXouejufx3/NYxqUTRhreSzP12xdYsbXhdWpA8jqe/58fHd6viEC3iGGjr/hbo3ZoqMnVbcJKx0INuH3gMh6xHOHl+D+32V1FQgL/k3fDClj143+y/or/P1ek7Wn4UaQZnNxdsFY6djLrb8k/kuo1hLu8mm7rmJHMDelD5umvFWgidijURBwSjumaV4gYbebMzg2ObXL+Az47UcWIkHvapoSedxLV7QCfpekO/SL2aPhRxI6G5+6qy8+Suu4lzhzpzGfJiUhjdJ2aiB35q261f5srEemSNPwoIiKGoVATERHDUKiJiIhhKNRERMQwDDFRJDcnp7NLEBGRLkA9NRERMQyFmoiIGIZCTUREDEOhJiIihqFQExERwzD5Ag0foXUJpx74h4+ib+8euHWH6qoispP2kHz2HNUdVKSIiIgjGu+pdfMhOGoCIU6nOPbjV2z/bgO79qXg1H8iI/r7NLpppxmfT/yag+z/z2ImdHYtIiLSoRoNNadeQwkq2sfeYymUWGv6ZdUlKSTuPkxlv6H423lUfafaYWHsQ4PYF3CC3z3Q2cWIiEhHajTUqs9+z65jaZevsKaSe84LL/Plq7qEEle2HTcT0LuqsysREZEO1LKJIt388fIqp6ysjatpa5oGIyJyVWnR1757/0h8s46SUdnW5YiIiLRcs0PNvf+tXOOXSUJiRnvUIyIi0mLNCjX3fpO4xj+T/bsTKPulvUpqG9nlzngFlBPj2dmViIhIR3E41Nz7TWLEFRJoABs/9ONowHFeX5nBH3p3djUiItIRHHj0jBOeobcwpEcaCXuOXhGBBhAzN4fIrME8/YIXG0s6uxoREekITYSaK5bBNxPuksTBA0mUXyGBBuDvVkVRlpsCTUTkKtLI8KMzlshbCOMQ+w5eHmiWyGmEd9GbioiIyNXJFHHznXUvMhM2kFR3I0gPPL2dcfOIYlyfKJsb5+qB0yIi0oWYtn+3wc6qc6Tt2oCN+4lcOXTHZRGRq4ox77nhW8GUwRWkpTh3diUiItKBHJj9eIW5OY/4Rem4nAjlic87uxgREelI3SKGjb6C5jSKiIjYZ8zhRxERuSop1ERExDAUaiIiYhgKNRERMQyFmoiIGIZCTUREDEOhJiIihqFQExERw1CoiYiIYSjURETEMEy+QG5jLVz88O8zmKAgHzxdnKC6mpLMQxw7nnJFPTRURESMr/EbGjuHM2x8OJU/7+PYzkzKz4OTyQffgWMZNcqNPXuPUtlBhYqIiDSl2w3DRv/SaE/NJj/6Xz8K677NpJW1Q1UiIiIt0MJzatX8ogdwiohIF9P8UOvug3/kWPqUpHBWvTQREelCHH5IqFvfSUQN8AKgPCuBfYdSsLZbWSIiIs3XzHNqTpjM/eg/dBjmnHgOnchUsImISJfRzOHHaqzFKSTFbyffL4r+Pu1TlIiISEu0bKLIL3mkni6iV6/gNi5HRESk5Vp8R5Hqak1/FBGRrqVlodbNh+C+fuTnZ7ZxOSIiIi3XaKi5BE1kTFQUvbx7YKpt6eQWSPDI6wiqOEzS2aqOqFFERMQh3R5+fEndHRwzEzaQ1GAqpIvXIIIHhuHv5VoTbOcryD99gKRTGVTq3o8iItKFdIsYNlrRJCIihqBHz4iIiGEo1ERExDAUaiIiYhgKNRERMQyFmoiIGIZCTUREDEOhJiIihqFQExERw1CoiYiIYTj85OsrVXBkBb+LyeK6AaW4YKIopwf7tlp4bUt30jq7OBERaVOGvk3W/EdTWXxdJq6XrXGmImUA//66mY2lnVCYiIi0C8MOPwZPz7QTaABVuIYe4w+PV6DHnIqIGIdBQ+08z09MtRNoF7lG5rBYqSYiYhjGDLUxhYzycaRhBtdMbO9iRESkozj5Nqd1t0DCb7yTG26+gWZt19G8zuPiYNMefp3woNO+pWxcfZLlo22sizjH96sz+MOgDq9KROSK16yemnu/Yfjm55DfXtW0FetEHI2qcznO7VqKLY8+mM6ALF/e221j5bEefJuST8yDpTrfJyLSTI6HWvd+9AuB9JQ0qtuxoDaRG0VKhSMNAzi6r72LaaBvEXePqOLoDi922mmyJC4ABuXyO/XWRESaxeFQ8wqNpEfWIdKuiCnwPXg3cSqN55ozRft78drhDiqp1t335BJcEsC3nzbS6FsLu3IzmTDboWQWEZFajl187RpJaFAJJ7dnAP3at6JWMN+6hOBeNf/OzFzM0p69+E3I+9gaYKw4PYB//ZMraT2n4jPuWnx93enuBJYBwyhKjufnj1+lwmpjQ7fp+M26n75hPriagOpKStL3k/L5cxTlNVXheaYMyqEiJZBljbbrzs4UCxMii3gU1ybaiojIBQ6FWo/+oTinx5Np60u+Cyne/DzHAIY+QUTwaVZ8mEDUf8GEhjMhq4LYuMLMtuD59BvrRf729/g5M6N2ZW+cRz/L4Mdf58TbT1NW/z37PMnAh0dR+t1y9v5vbN1ip9AXGfjwSrJXPkxeY8HWt5QwX2fStjd1sQG8d7gHi0cXMm68H8t2OPb+RUSudk0PP3qMYEDAOU6m5HRAOW2tO3EpPlAeyLYtg9m4ZTD784BML5alXY/vOH+K4v5MYV2gAZylavdijuzxIXKmvC3YAAAQXElEQVTuI/WWX4PPPbdQ/f3TpO+OveQo1SkvcXxtHsEPvmKzV1hnRAX+mMk+5UDpp50pIg9/nVcTEXFYE6HmjG9oP0g9RO75jimora3OcYcqd3Z+6MXTH3pxohiohrTeg+lhzaAw1/Z21T8mUdLvGnpcWGCahH+v0+TsPGt7gxO7KHAJxzewkWJ8q3DFjZw9DhSe0J1zDjQTEZGLGg8181D6WzI5ccqAX6++XriUF2F3RNVaASYXul943S8Q98piKhvZ5Xlc6O7RplWKiEgzNH5Ozd0TN2c/hk2887JVvjdP4uSOWNLL26u0NlINuBUw58Uq7gZ6+EFFijPkFlEZ7oUJbAebyRWsldR1UE9lUOYyEBegzM6hulNJZWOzQ0ucgFL8ooBtTdQ94jw9QL01EZFmaDzUsrez/buGC/sRcXMw2d9tx87IXdfyaS/e88thgl/NwwjOpUTwl3ddofQ450w34u0LeTbeiOmWIXid+oHjFxZYY8nOvAW/63pzztYQ5Iib8KtM4mDG5avqxHuQNvss/o5MIO1bhRc+JCU60FZERICr4Hlq4MRr7wbw2mXLfyR312D6TXoS9sSRn7yHXwBM1+Ae/TiDh53l8FvL67XfT97n/8D3kbcINa3h1M7PqbYChOM89hEG3mzm5H8vbvxOJqc9SM6tYlxYBTRxu+X5Q8/hWtKDXZr5KCLisG4PP76k7nlqmQkbSLLX/XKL5Jrxg/CsW1DUxYYfowmYNRkfe1lRksiJdf97eeh06HVqcPeTJ/nDCDNvPeTXyPVn51m+bB/j0odzzZKmp/+LiEgNQz8ktEvqW8TmN1Ip+nwIM+3dVWRKDvv/TxnbngvhCQ0/iog4zJiPnunKTnvxRYIzkeOLuM5Ok+ejsyDRl9cUaCIizaJQ6wTL3g/iREAu8+08emZKqIWN73uQ1uGViYhc2TT8KCIihqGemoiIGIZCTUREDEOhJiIihqFQExERwzDEHUVMzm6dXYJ0QXNnxzSr/YefbuzSxxGRphki1ETs+evatQ61e2jmzCviOCLSOA0/ioiIYSjURETEMBRqIiJiGAo1ERExDFM0ENdIg7BZLzB/lNflK/LjWfH6GlLbqzJx0DjmvRhDaN3Pk1RiX1zB951Z0tilRE0NufiLKW0zP636c2dWZFtwKRv/I5P0d0Np/WPrqvnzG8cI2xNBzGr9VhTpLA7Nfizet5w/rklq71qkRXbxwUu7av8dzcMvDe7UagCIX8Se+Np/37iUMYM6tRq7Hr0vjQE5vfnDPogIbe3enHhtuw+bp2Xxu/W9ea20LSoUkebST0q5OgUXcvewSo7Ge7OzjXaZttbC/qoMbp1d3UZ7FJHmUqjJVenuO3MJLu3Ft45dXuYgVz4/1JPgsbk82pa7FRGHGe7ia1NAFNPvnkxkgBmTE2C1UpC6nW0FI5jEet5Yn3xZ+2l3RjO8j6W2fTk5KT+w4ZM40qwX27lNXsQzNwUCqcQu+RrmzmFCqBkTYC1IJPajj9mRZeUyJn9GTZvBhOEh9HSprefsEeLTLUwKPMwrK7c33AC/qBjunDCS4J41fx5raTYpO9fxWVwqNo7QbD1HzeL+qSPwu3AjFms5Zw9v4osv95DTFgdoiYAF9I6ZQp8+nnR3AqwlFJ/cTfJn/4+Ky2rqhfO1TxA6aQQ9PGqWlKXt5uT6BLwfWkCQGapP/g0q7D2R7jxTwrOpONWHZXZamMfcxf3XDaantxk3F6DaSsGZA2zbsJF9tv7Otb7Y780zY3OJnuTPsthmfQIi0gYcC7Ueo7jv8XkMCnSv+RLPT2LrJyuJS+2sb0DbTINnsXhmIKnbvuLdPUcoKAeTOYTIiXcwbYwF64GG7e/isZgADq5dyisp5ReW4hc1i/sfm8Xf313Dz7VvsXzLUl7aEs3DL41k0Pw5uOVuZeWruzhLIGPumse0B2dw9vU1pDSoadSvFjHFfTtfLl/NzznFWHGjZ+SN3D19BKa84w3fAQPveoLpvgms/ctLXCzJn1EzH+CxmRt5d21iq4LNPH4hj01y4+etH/NR7Wfk1nMIo6ZM5uHFYax96+J77jCDXiFymoWs9f/G3pMXfnT0wvnafyX80Vc4uew5yurV1P3GFxl6bQnJqxeTeCYZCMN59K8JXzADJ6cS0j/8FWeSIdLe7auCSwjzcSZtp6vdkoqPHyE2fT0/n6ldYDIzcPI87v31QixvLyU2z86G282cmHeCAcOqINa5mR+EiLSWQ8OPZn8f8n9YyRsvPM3zL7zMqi1ZDJ37KNG+7V1ecwxh5l1hpKxdymfba76sAazFqRzcuJTPDhTDJac6wpg+PYyUj1cQW5ceAFZy9nzMyr0WZs4ZZyP1/emZu47la3dxthwoz+CnT9ZxkDBGDbBdmTX/dG2gAZRTcHQLK7elQnWD9Bgwg+mhyXy0cguXlpTNvs9WsNd3FnPGtKZzPYRpEywc/fzSz6i84Ag7PlvK2lNhTJsW2Ir9t8QM+sSEkP/ZInJP1u9FZ1K192mO77cw8FcLLi72/lcGXF9F8tKnKTxzoX0yVbuf5ujWfFwduQ3o0Ar8MZPd2KPFCxMvBhqAtZifN61g29lAQoc2tnMThcXg5V/hQCEi0taa/IZMXvMyz1+ypIjUfev4oPfTLJ4ynLiPD7Zbcc0yeCgh5Yf56LjtbkbK2j/yRv0FA6IIrUzkozM2m1O84zgFE4cwil38dMmaVOIv6y3Z79rs+2QpTJ/F4ucewFw7/FhenMHRrWt4aWX+JW1DR4ZhPf4BZ21XxI7EfCZERsFPu2y2aNKAoYRUJ7PW5mdk5ecfDsP94whl/WU9znYTNhqfyhMct/N3qN6ZTOmEkXgDhYDT2Ag8TsZRaOst7N5K5oTZTR/TtwpX3MnZ19xirQ1+GNnSnWzNfBTpNC3+2V9cVoZb/4C2rKV1AiyYS7PsBIINfZpobwWryZlW3//fms2+tUup//1pMg9i0v0Ledi8gpXfXwy2YF8zxccy7O+q2orJoa5II8wjmPfSiEYapBIMHRdqfSy4lx6jyt56ayWYnOle+9LVbMZaWWx3d7+0UVluoZOZGRNFqE/tuVnAWlnT28451kYHEZE21+JQMzl1sTkmBUWUe3jRGxwLtjP5FF/bSHsTmKxVlNta10rW4kS+XXOAxx67izHfv1fXE0zLLeZar0DAdrCZnExYK1pRUUkZ1uIEPrBx7q/TnMmn7BoLzmA72EwuYK3ifO3LiuJiTD5mOzsz091EXVu7SpyAEvxGAQ3n6QAMuIvH5g6lYNdXrN6ZSErtOK3J7M+k+58gpNGdn8ffA1BvTaRTNHpOLezuZ3nm/rFYLlvjww2Rvcg+3YV+sh48QIrbSCYMtx22psGzeOr5+Yy5sODEHlJcBjG2j+3d9Zw0kp6njtDsEar6Qu/iqadnYfO6XhvDZykHkjENHkdvmzuzMGmYhdSje1pez9mtHCwOY4ydz6gpodOf5MWXlvDiswu5yaflZVwieTd5LgPwtfN36D4xAvPpAxTWvq6OP0Zp/9F423gLTteNx9+RjuweD9Ioxj/Y9urQkYPh8BpWbkqoCzQAa3GRA5N0rHiboSjb/iQUEWk/jYZa8tZ/cDp4FosWz2FciBcmwM0ynMkLf8tk80E2fZPeQWU64gh/jz1NaMwiZo4JrBs2dOs5hPH3PsFTvxpE9rfr650fS+bLL5MJfWAR00ZebI/JzMBJC3l4aAZrV+9q3RR6J2cwj+Dex+5jfKTl4jHcwphyfxRuB+MuPV93Yh1fpoTx4CMxDO9z8dvZZB7EpIcXEpmxhtU/taaiYmI/3YnXtKeYN3UEoT0vHsOtZxjDYxbxzLMPMNzmtiEMH1D788YthEGNTpZojnWc2ZiKZc7/0HvErRf/gzSNwH3iUiKHZHL8k1UXmxf+P0786Ezfha/g3Sesrq3r6NeJnOCDQx3ZNE+S86oIDrU9mSO7sAhzvyjGXPgbuFmIHBPDvKef4SbbvzguuqGYAW49OXFIMx9FOkO3NV9+V3caIvmrp3mv4U3wTAFEzZjD1OFBuJmA6jKyk35k4yebSG6PsbkWqP/k65pzIeMI9XOrGVu1Wik4a//6ouZfp1ajYM8K3voyFQbO4qm5I6gbEEvZyEt/rZ3IEXoXT02Hb7eWM3zCyLrzM9bKfFJ3rOez2GQbw5vNuU4thOn/spBRPRv5cOrXU/dmwph0TwxjQv1r/qaAtTib1OO7+Pbb2lmdNoROf5J5URYoTyV2+Qq+tzWtPfhFhi4YjUcjJWVvuoOT8Q0Wttl1arNhfc2U/rmzY+w+vPPux1L4wzAzb/3an2XUPLzz4hOpLYyaeR9ThgbWfj5WynOS+WnjGqomP8ekYKBgDyvfXE8alx6n4X4buvQ4ItLWukUMG91W59Y7Tf1Qk6vZDPo86VioEVzI5ldOU7RhGDPXti5sLh6ngo//cgS/+JHc+p7tQRCFmkj70m2yxEDMdDdVYnVkkkaaN18cciFybCHXtdHRg2fmc41zIJs/1f9WIp1F//eJMZhvxTL3dnxzdpPr4HUdyz4O5oRfLvNHtUUB1fzuhjxOxAboDv0inaiLzcsXcZCNc3dlSX/j8AfLmp7Sf0GaBzH/XDM39aE2ePTME08Nae1ORKSVFGpyZUp7icMvd3YRItLVaPhRREQMQ6EmIiKGoVATERHD0Dk1MbSHZs50uO3B1T+06Bh/3BDTrOOISPsxxMXXIiIioOFHERExEIWaiIgYhkJNREQMQ6EmIiKGoVATERHDMPkCuQ42drFEEjYgFIvZGaduUF16ikO79lPUnhWKiIg4yMHr1FyxDL6ZiJ4FJB/9nsSiIqp1IYCIiHQxDoWae/8b6Fe5m127cqhu74pERERaqOlzaq6RDPQ+zaEUBZqIiHRtTYaae2AwlRlJWDuiGhERkVZoYvjRGW9vKM4Ct17XETGwF57OUF1VROaxnSTn6BG/IiLSdTQRah44u4NLwA2MDHYm/chmEvJKwbUX/mHXEc73JOVUdUylIiIiTWhi+NELD3cPAvt7kZmwlbS8UqqB6opMMo8mYO0djkuHlCkiItK0JkKtlIpyqM45zunChuuq+cXsg1d7VSYiItJMTYRaHnl5VTg5dbex7jznda2aiIh0IU3OfixKTiTfEoh/w7NvJh/MZXm6m4iIiHQZTV+nZk0i5ZQbYaNG4FnbYXPyDGXQ6EisaUepbOcCRUREHNXt4ceX1A0iZiZsIMnmjSCd8Awaz+ABfrh315R+ERHpmrpFDButM2MiImIIevSMiIgYhkJNREQMQ6EmIiKGoVATERHDUKiJiIhhKNRERMQwFGoiImIYCjURETEMhZqIiBiGQk1ERAxDoSYiIoahUBMREcNQqImIiGEo1ERExDAUaiIiYhgKNRERMQyFmoiIGIZCTUREDEOhJiIihqFQExERw1CoiYiIYSjURETEMBRqIiJiGAo1ERExDIWaiIgYhkJNREQMQ6EmIiKGoVATERHDUKiJiIhhKNRERMQwFGoiImIYCjURETEMhZqIiBiGQk1ERAxDoSYiIoahUBMREcNQqImIiGEo1ERExDAUaiIiYhgKNRERMYz/Dx1B92DqqKa/AAAAAElFTkSuQmCC;" vertex="1" parent="1">
                    <mxGeometry x="20" y="60" width="437" height="489" as="geometry"/>
                </mxCell>
                <mxCell id="5" value="全局作用域" style="text;html=1;strokeColor=none;fillColor=none;align=center;verticalAlign=middle;whiteSpace=wrap;rounded=0;" vertex="1" parent="1">
                    <mxGeometry x="890" y="90" width="90" height="30" as="geometry"/>
                </mxCell>
                <mxCell id="6" value="a&lt;br&gt;foo" style="text;html=1;strokeColor=none;fillColor=none;align=center;verticalAlign=middle;whiteSpace=wrap;rounded=0;" vertex="1" parent="1">
                    <mxGeometry x="900" y="130" width="60" height="30" as="geometry"/>
                </mxCell>
                <mxCell id="7" value="" style="rounded=0;whiteSpace=wrap;html=1;" vertex="1" parent="1">
                    <mxGeometry x="540" y="100" width="350" height="370" as="geometry"/>
                </mxCell>
                <mxCell id="8" value="foo函数参数作用域" style="text;html=1;strokeColor=none;fillColor=none;align=center;verticalAlign=middle;whiteSpace=wrap;rounded=0;" vertex="1" parent="1">
                    <mxGeometry x="800" y="110" width="60" height="30" as="geometry"/>
                </mxCell>
                <mxCell id="9" value="x = undefined&lt;br&gt;y=function" style="text;html=1;strokeColor=none;fillColor=none;align=center;verticalAlign=middle;whiteSpace=wrap;rounded=0;" vertex="1" parent="1">
                    <mxGeometry x="800" y="150" width="80" height="30" as="geometry"/>
                </mxCell>
                <mxCell id="10" value="" style="rounded=0;whiteSpace=wrap;html=1;" vertex="1" parent="1">
                    <mxGeometry x="550" y="130" width="220" height="320" as="geometry"/>
                </mxCell>
                <mxCell id="11" value="foo函数内部作用域" style="text;html=1;strokeColor=none;fillColor=none;align=center;verticalAlign=middle;whiteSpace=wrap;rounded=0;" vertex="1" parent="1">
                    <mxGeometry x="690" y="140" width="60" height="30" as="geometry"/>
                </mxCell>
                <mxCell id="12" value="x = 2" style="text;html=1;strokeColor=none;fillColor=none;align=center;verticalAlign=middle;whiteSpace=wrap;rounded=0;" vertex="1" parent="1">
                    <mxGeometry x="675" y="180" width="80" height="30" as="geometry"/>
                </mxCell>
            </root>
        </mxGraphModel>
    </diagram>
</mxfile>